<mxfile host="app.diagrams.net" modified="2021-07-25T10:23:51.087Z" agent="5.0 (Macintosh; Intel Mac OS X 10_15_7) AppleWebKit/537.36 (KHTML, like Gecko) Chrome/91.0.4472.164 Safari/537.36" etag="LBAZCUcGixW6H7O_2Ifo" version="14.9.0" type="github">
  <diagram id="gquFNGlcEB4KPsNbVuEu" name="第 1 页">
    <mxGraphModel dx="878" dy="502" grid="1" gridSize="10" guides="1" tooltips="1" connect="1" arrows="1" fold="1" page="1" pageScale="1" pageWidth="827" pageHeight="1169" math="0" shadow="0">
      <root>
        <mxCell id="0" />
        <mxCell id="1" parent="0" />
        <mxCell id="ETJ9JCZCS1mEjzd445x2-8" style="edgeStyle=orthogonalEdgeStyle;rounded=0;orthogonalLoop=1;jettySize=auto;html=1;exitX=1;exitY=0.5;exitDx=0;exitDy=0;entryX=0;entryY=0.5;entryDx=0;entryDy=0;" edge="1" parent="1" source="ETJ9JCZCS1mEjzd445x2-1" target="ETJ9JCZCS1mEjzd445x2-4">
          <mxGeometry relative="1" as="geometry" />
        </mxCell>
        <mxCell id="ETJ9JCZCS1mEjzd445x2-1" value="Skywalking" style="rounded=1;whiteSpace=wrap;html=1;dashed=1;" vertex="1" parent="1">
          <mxGeometry x="80" y="190" width="120" height="60" as="geometry" />
        </mxCell>
        <mxCell id="ETJ9JCZCS1mEjzd445x2-11" style="edgeStyle=orthogonalEdgeStyle;rounded=0;orthogonalLoop=1;jettySize=auto;html=1;exitX=1;exitY=0.5;exitDx=0;exitDy=0;entryX=0;entryY=0.5;entryDx=0;entryDy=0;" edge="1" parent="1" source="ETJ9JCZCS1mEjzd445x2-2" target="ETJ9JCZCS1mEjzd445x2-9">
          <mxGeometry relative="1" as="geometry" />
        </mxCell>
        <mxCell id="ETJ9JCZCS1mEjzd445x2-2" value="Zipkin" style="rounded=1;whiteSpace=wrap;html=1;dashed=1;" vertex="1" parent="1">
          <mxGeometry x="80" y="270" width="120" height="60" as="geometry" />
        </mxCell>
        <mxCell id="ETJ9JCZCS1mEjzd445x2-12" style="edgeStyle=orthogonalEdgeStyle;rounded=0;orthogonalLoop=1;jettySize=auto;html=1;exitX=1;exitY=0.5;exitDx=0;exitDy=0;entryX=0;entryY=0.5;entryDx=0;entryDy=0;" edge="1" parent="1" source="ETJ9JCZCS1mEjzd445x2-3" target="ETJ9JCZCS1mEjzd445x2-10">
          <mxGeometry relative="1" as="geometry" />
        </mxCell>
        <mxCell id="ETJ9JCZCS1mEjzd445x2-3" value="cat" style="rounded=1;whiteSpace=wrap;html=1;dashed=1;" vertex="1" parent="1">
          <mxGeometry x="80" y="350" width="120" height="60" as="geometry" />
        </mxCell>
        <mxCell id="ETJ9JCZCS1mEjzd445x2-18" style="edgeStyle=orthogonalEdgeStyle;rounded=0;orthogonalLoop=1;jettySize=auto;html=1;exitX=1;exitY=0.5;exitDx=0;exitDy=0;entryX=0;entryY=0.5;entryDx=0;entryDy=0;" edge="1" parent="1" source="ETJ9JCZCS1mEjzd445x2-4" target="ETJ9JCZCS1mEjzd445x2-15">
          <mxGeometry relative="1" as="geometry" />
        </mxCell>
        <mxCell id="ETJ9JCZCS1mEjzd445x2-4" value="SourceTopic1" style="rounded=1;whiteSpace=wrap;html=1;fillColor=#d5e8d4;strokeColor=#82b366;" vertex="1" parent="1">
          <mxGeometry x="230" y="190" width="120" height="60" as="geometry" />
        </mxCell>
        <mxCell id="ETJ9JCZCS1mEjzd445x2-19" style="edgeStyle=orthogonalEdgeStyle;rounded=0;orthogonalLoop=1;jettySize=auto;html=1;exitX=1;exitY=0.5;exitDx=0;exitDy=0;" edge="1" parent="1" source="ETJ9JCZCS1mEjzd445x2-9">
          <mxGeometry relative="1" as="geometry">
            <mxPoint x="390" y="300" as="targetPoint" />
          </mxGeometry>
        </mxCell>
        <mxCell id="ETJ9JCZCS1mEjzd445x2-9" value="SourceTopic2" style="rounded=1;whiteSpace=wrap;html=1;fillColor=#d5e8d4;strokeColor=#82b366;" vertex="1" parent="1">
          <mxGeometry x="230" y="270" width="120" height="60" as="geometry" />
        </mxCell>
        <mxCell id="ETJ9JCZCS1mEjzd445x2-21" style="edgeStyle=orthogonalEdgeStyle;rounded=0;orthogonalLoop=1;jettySize=auto;html=1;exitX=1;exitY=0.5;exitDx=0;exitDy=0;entryX=0;entryY=0.5;entryDx=0;entryDy=0;" edge="1" parent="1" source="ETJ9JCZCS1mEjzd445x2-10" target="ETJ9JCZCS1mEjzd445x2-15">
          <mxGeometry relative="1" as="geometry" />
        </mxCell>
        <mxCell id="ETJ9JCZCS1mEjzd445x2-10" value="SourceTopic3" style="rounded=1;whiteSpace=wrap;html=1;fillColor=#d5e8d4;strokeColor=#82b366;" vertex="1" parent="1">
          <mxGeometry x="230" y="350" width="120" height="60" as="geometry" />
        </mxCell>
        <mxCell id="ETJ9JCZCS1mEjzd445x2-13" value="Source" style="text;html=1;align=center;verticalAlign=middle;whiteSpace=wrap;rounded=0;" vertex="1" parent="1">
          <mxGeometry x="270" y="160" width="40" height="20" as="geometry" />
        </mxCell>
        <mxCell id="ETJ9JCZCS1mEjzd445x2-25" style="edgeStyle=orthogonalEdgeStyle;rounded=0;orthogonalLoop=1;jettySize=auto;html=1;exitX=1;exitY=0.5;exitDx=0;exitDy=0;entryX=0;entryY=0.5;entryDx=0;entryDy=0;" edge="1" parent="1" source="ETJ9JCZCS1mEjzd445x2-15" target="ETJ9JCZCS1mEjzd445x2-22">
          <mxGeometry relative="1" as="geometry" />
        </mxCell>
        <mxCell id="ETJ9JCZCS1mEjzd445x2-26" style="edgeStyle=orthogonalEdgeStyle;rounded=0;orthogonalLoop=1;jettySize=auto;html=1;exitX=1;exitY=0.5;exitDx=0;exitDy=0;entryX=0;entryY=0.5;entryDx=0;entryDy=0;" edge="1" parent="1" source="ETJ9JCZCS1mEjzd445x2-15" target="ETJ9JCZCS1mEjzd445x2-23">
          <mxGeometry relative="1" as="geometry" />
        </mxCell>
        <mxCell id="ETJ9JCZCS1mEjzd445x2-27" style="edgeStyle=orthogonalEdgeStyle;rounded=0;orthogonalLoop=1;jettySize=auto;html=1;exitX=1;exitY=0.5;exitDx=0;exitDy=0;entryX=0;entryY=0.5;entryDx=0;entryDy=0;" edge="1" parent="1" source="ETJ9JCZCS1mEjzd445x2-15" target="ETJ9JCZCS1mEjzd445x2-24">
          <mxGeometry relative="1" as="geometry" />
        </mxCell>
        <mxCell id="ETJ9JCZCS1mEjzd445x2-15" value="Function" style="rounded=1;whiteSpace=wrap;html=1;fillColor=#fff2cc;strokeColor=#d6b656;" vertex="1" parent="1">
          <mxGeometry x="390" y="270" width="120" height="60" as="geometry" />
        </mxCell>
        <mxCell id="ETJ9JCZCS1mEjzd445x2-29" style="edgeStyle=orthogonalEdgeStyle;rounded=0;orthogonalLoop=1;jettySize=auto;html=1;exitX=1;exitY=0.5;exitDx=0;exitDy=0;entryX=0;entryY=0.5;entryDx=0;entryDy=0;" edge="1" parent="1" source="ETJ9JCZCS1mEjzd445x2-22" target="ETJ9JCZCS1mEjzd445x2-28">
          <mxGeometry relative="1" as="geometry" />
        </mxCell>
        <mxCell id="ETJ9JCZCS1mEjzd445x2-22" value="Sink1" style="rounded=1;whiteSpace=wrap;html=1;fillColor=#dae8fc;strokeColor=#6c8ebf;" vertex="1" parent="1">
          <mxGeometry x="550" y="190" width="120" height="60" as="geometry" />
        </mxCell>
        <mxCell id="ETJ9JCZCS1mEjzd445x2-34" style="edgeStyle=orthogonalEdgeStyle;rounded=0;orthogonalLoop=1;jettySize=auto;html=1;exitX=1;exitY=0.5;exitDx=0;exitDy=0;entryX=0;entryY=0.5;entryDx=0;entryDy=0;" edge="1" parent="1" source="ETJ9JCZCS1mEjzd445x2-23" target="ETJ9JCZCS1mEjzd445x2-31">
          <mxGeometry relative="1" as="geometry" />
        </mxCell>
        <mxCell id="ETJ9JCZCS1mEjzd445x2-23" value="Sink2" style="rounded=1;whiteSpace=wrap;html=1;fillColor=#dae8fc;strokeColor=#6c8ebf;" vertex="1" parent="1">
          <mxGeometry x="550" y="270" width="120" height="60" as="geometry" />
        </mxCell>
        <mxCell id="ETJ9JCZCS1mEjzd445x2-35" style="edgeStyle=orthogonalEdgeStyle;rounded=0;orthogonalLoop=1;jettySize=auto;html=1;exitX=1;exitY=0.5;exitDx=0;exitDy=0;entryX=0;entryY=0.5;entryDx=0;entryDy=0;" edge="1" parent="1" source="ETJ9JCZCS1mEjzd445x2-24" target="ETJ9JCZCS1mEjzd445x2-32">
          <mxGeometry relative="1" as="geometry" />
        </mxCell>
        <mxCell id="ETJ9JCZCS1mEjzd445x2-24" value="Sink3" style="rounded=1;whiteSpace=wrap;html=1;fillColor=#dae8fc;strokeColor=#6c8ebf;" vertex="1" parent="1">
          <mxGeometry x="550" y="350" width="120" height="60" as="geometry" />
        </mxCell>
        <mxCell id="ETJ9JCZCS1mEjzd445x2-39" style="edgeStyle=orthogonalEdgeStyle;rounded=0;orthogonalLoop=1;jettySize=auto;html=1;exitX=1;exitY=0.5;exitDx=0;exitDy=0;entryX=0;entryY=0;entryDx=0;entryDy=30;entryPerimeter=0;" edge="1" parent="1" source="ETJ9JCZCS1mEjzd445x2-28" target="ETJ9JCZCS1mEjzd445x2-36">
          <mxGeometry relative="1" as="geometry" />
        </mxCell>
        <mxCell id="ETJ9JCZCS1mEjzd445x2-28" value="ShareTopic1" style="rounded=1;whiteSpace=wrap;html=1;fillColor=#f5f5f5;strokeColor=#666666;fontColor=#333333;" vertex="1" parent="1">
          <mxGeometry x="700" y="190" width="120" height="60" as="geometry" />
        </mxCell>
        <mxCell id="ETJ9JCZCS1mEjzd445x2-40" style="edgeStyle=orthogonalEdgeStyle;rounded=0;orthogonalLoop=1;jettySize=auto;html=1;exitX=1;exitY=0.5;exitDx=0;exitDy=0;entryX=0;entryY=0.5;entryDx=0;entryDy=0;entryPerimeter=0;" edge="1" parent="1" source="ETJ9JCZCS1mEjzd445x2-31" target="ETJ9JCZCS1mEjzd445x2-37">
          <mxGeometry relative="1" as="geometry" />
        </mxCell>
        <mxCell id="ETJ9JCZCS1mEjzd445x2-31" value="ShareTopic2" style="rounded=1;whiteSpace=wrap;html=1;fillColor=#f5f5f5;strokeColor=#666666;fontColor=#333333;" vertex="1" parent="1">
          <mxGeometry x="700" y="270" width="120" height="60" as="geometry" />
        </mxCell>
        <mxCell id="ETJ9JCZCS1mEjzd445x2-41" style="edgeStyle=orthogonalEdgeStyle;rounded=0;orthogonalLoop=1;jettySize=auto;html=1;exitX=1;exitY=0.5;exitDx=0;exitDy=0;entryX=0;entryY=0.5;entryDx=0;entryDy=0;entryPerimeter=0;" edge="1" parent="1" source="ETJ9JCZCS1mEjzd445x2-32" target="ETJ9JCZCS1mEjzd445x2-38">
          <mxGeometry relative="1" as="geometry" />
        </mxCell>
        <mxCell id="ETJ9JCZCS1mEjzd445x2-32" value="ShareTopic3" style="rounded=1;whiteSpace=wrap;html=1;fillColor=#f5f5f5;strokeColor=#666666;fontColor=#333333;" vertex="1" parent="1">
          <mxGeometry x="700" y="350" width="120" height="60" as="geometry" />
        </mxCell>
        <mxCell id="ETJ9JCZCS1mEjzd445x2-36" value="index1" style="shape=cylinder3;whiteSpace=wrap;html=1;boundedLbl=1;backgroundOutline=1;size=15;fillColor=#f0a30a;strokeColor=#BD7000;fontColor=#000000;" vertex="1" parent="1">
          <mxGeometry x="840" y="190" width="70" height="50" as="geometry" />
        </mxCell>
        <mxCell id="ETJ9JCZCS1mEjzd445x2-37" value="index2" style="shape=cylinder3;whiteSpace=wrap;html=1;boundedLbl=1;backgroundOutline=1;size=15;fillColor=#f0a30a;strokeColor=#BD7000;fontColor=#000000;" vertex="1" parent="1">
          <mxGeometry x="840" y="275" width="70" height="50" as="geometry" />
        </mxCell>
        <mxCell id="ETJ9JCZCS1mEjzd445x2-38" value="index3" style="shape=cylinder3;whiteSpace=wrap;html=1;boundedLbl=1;backgroundOutline=1;size=15;fillColor=#f0a30a;strokeColor=#BD7000;fontColor=#000000;" vertex="1" parent="1">
          <mxGeometry x="840" y="355" width="70" height="50" as="geometry" />
        </mxCell>
        <mxCell id="ETJ9JCZCS1mEjzd445x2-42" value="function" style="text;html=1;align=center;verticalAlign=middle;whiteSpace=wrap;rounded=0;" vertex="1" parent="1">
          <mxGeometry x="430" y="160" width="40" height="20" as="geometry" />
        </mxCell>
        <mxCell id="ETJ9JCZCS1mEjzd445x2-43" value="Sink" style="text;html=1;align=center;verticalAlign=middle;whiteSpace=wrap;rounded=0;" vertex="1" parent="1">
          <mxGeometry x="730" y="140" width="40" height="20" as="geometry" />
        </mxCell>
      </root>
    </mxGraphModel>
  </diagram>
</mxfile>
